<?xml version="1.0" encoding="UTF-8"?>
<svg id="Layer_2" data-name="Layer 2" xmlns="http://www.w3.org/2000/svg" viewBox="0 0 438.91 107.02">
  <defs>
    <style>
      .cls-1 {
        fill: #f5793b;
      }

      .cls-1, .cls-2 {
        stroke-width: 0px;
      }

      .cls-2 {
        fill: #223651;
      }
    </style>
  </defs>
  <g id="Layer_1-2" data-name="Layer 1">
    <g>
      <g>
        <path class="cls-2" d="M6.18,1.58l27.16,32.29c1.4,1.66,3.96,1.66,5.36,0L65.86,1.58c2.1-2.5,6.18-1.01,6.18,2.25v65.06h-14.88v-34.83l-18.54,20.75c-1.39,1.56-3.83,1.56-5.22,0l-18.54-20.75v34.83H0V3.83C0,.57,4.08-.92,6.18,1.58Z"/>
        <path class="cls-2" d="M128.84,52.71c-2.06,5.24-5.18,9.25-9.36,12.02-4.18,2.78-9.2,4.16-15.06,4.16-4.12,0-7.78-.67-10.99-2.01-3.21-1.34-5.93-3.16-8.14-5.47s-3.91-5.02-5.1-8.14c-1.19-3.12-1.78-6.46-1.78-10.01,0-3.74.59-7.22,1.78-10.43,1.19-3.21,2.88-5.97,5.1-8.28,2.21-2.31,4.93-4.12,8.14-5.43,3.21-1.31,6.81-1.96,10.8-1.96s7.39.61,10.57,1.82,5.9,2.95,8.14,5.19,3.99,4.94,5.24,8.09,1.87,6.63,1.87,10.43c0,1-.06,2.05-.19,3.13-.12,1.09-.28,1.95-.47,2.58h-37.8c.31,1.37.83,2.6,1.54,3.7.72,1.09,1.64,2.01,2.76,2.76,1.12.74,2.41,1.34,3.88,1.77,1.46.44,3.13.65,5.01.65.75,0,1.57-.06,2.48-.19.9-.12,1.84-.34,2.81-.65s1.92-.77,2.85-1.36,1.78-1.39,2.53-2.38c0,0,0,0,0,0h13.38ZM117.98,39.05c-.25-1.25-.68-2.48-1.31-3.7-.62-1.22-1.48-2.29-2.57-3.23s-2.4-1.7-3.93-2.29c-1.53-.59-3.29-.89-5.29-.89-2.37,0-4.38.37-6.03,1.12-1.65.75-3.01,1.65-4.07,2.71s-1.83,2.17-2.29,3.32-.7,2.14-.7,2.95h26.2Z"/>
        <path class="cls-2" d="M189.09,0v44.85c0,3.49-.64,6.71-1.92,9.64-1.28,2.94-3.06,5.48-5.33,7.62-2.28,2.15-5.01,3.83-8.19,5.01s-6.68,1.77-10.48,1.77-7.45-.64-10.76-1.92c-3.31-1.28-6.16-3.07-8.56-5.38-2.4-2.3-4.27-5.04-5.61-8.19-1.34-3.15-2.01-6.6-2.01-10.34s.61-7.2,1.83-10.38c1.22-3.18,2.92-5.91,5.1-8.19s4.76-4.07,7.72-5.38c2.96-1.31,6.22-1.96,9.78-1.96,2.74,0,5.25.47,7.53,1.4s4.29,2.21,6.03,3.83V0s14.88,0,14.88,0ZM152,48.22c.59,1.56,1.42,2.9,2.48,4.02,1.06,1.12,2.3,1.99,3.74,2.62,1.43.62,3.03.94,4.77.94s3.34-.32,4.77-.94c1.43-.63,2.68-1.5,3.74-2.62,1.06-1.13,1.88-2.47,2.48-4.02.59-1.56.89-3.28.89-5.15s-.3-3.59-.89-5.15c-.59-1.56-1.4-2.91-2.43-4.07-1.03-1.16-2.28-2.04-3.74-2.67-1.46-.62-3.07-.94-4.82-.94s-3.34.31-4.77.94c-1.44.63-2.68,1.51-3.74,2.67-1.06,1.16-1.89,2.51-2.48,4.07-.59,1.56-.89,3.28-.89,5.15s.3,3.59.89,5.15Z"/>
        <path class="cls-2" d="M245.79,52.71c-2.06,5.24-5.18,9.25-9.36,12.02-4.18,2.78-9.2,4.16-15.06,4.16-4.12,0-7.78-.67-10.99-2.01-3.21-1.34-5.93-3.16-8.14-5.47s-3.91-5.02-5.1-8.14c-1.19-3.12-1.78-6.46-1.78-10.01,0-3.74.59-7.22,1.78-10.43,1.19-3.21,2.88-5.97,5.1-8.28,2.21-2.31,4.93-4.12,8.14-5.43,3.21-1.31,6.81-1.96,10.8-1.96s7.39.61,10.57,1.82,5.9,2.95,8.14,5.19,3.99,4.94,5.24,8.09,1.87,6.63,1.87,10.43c0,1-.06,2.05-.19,3.13-.12,1.09-.28,1.95-.47,2.58h-37.8c.31,1.37.83,2.6,1.54,3.7.72,1.09,1.64,2.01,2.76,2.76,1.12.74,2.41,1.34,3.88,1.77,1.46.44,3.13.65,5.01.65.75,0,1.57-.06,2.48-.19.9-.12,1.84-.34,2.81-.65s1.92-.77,2.85-1.36,1.78-1.39,2.53-2.38c0,0,0,0,0,0h13.38ZM234.94,39.05c-.25-1.25-.68-2.48-1.31-3.7-.62-1.22-1.48-2.29-2.57-3.23s-2.4-1.7-3.93-2.29c-1.53-.59-3.29-.89-5.29-.89-2.37,0-4.38.37-6.03,1.12-1.65.75-3.01,1.65-4.07,2.71s-1.83,2.17-2.29,3.32-.7,2.14-.7,2.95h26.2Z"/>
        <path class="cls-2" d="M290.66,18.64c3.28,1.28,6.1,3.07,8.47,5.38,2.37,2.31,4.23,5.05,5.57,8.23,1.34,3.18,2.01,6.64,2.01,10.38v26.25h-13.66v-6.33c-2.12,2.19-4.52,3.71-7.2,4.59s-5.71,1.31-9.07,1.31-6.69-.62-9.59-1.87c-2.9-1.25-5.38-3.01-7.44-5.29-2.06-2.28-3.67-5-4.82-8.19-1.16-3.18-1.73-6.67-1.73-10.48s.66-7.2,1.97-10.38c1.31-3.18,3.15-5.93,5.52-8.23,2.37-2.31,5.18-4.1,8.42-5.38,3.24-1.28,6.83-1.92,10.76-1.92s7.53.64,10.8,1.92ZM275.17,30.76c-1.44.63-2.68,1.51-3.74,2.67-1.06,1.16-1.89,2.51-2.48,4.07-.59,1.56-.89,3.28-.89,5.15s.3,3.59.89,5.15c.59,1.56,1.42,2.9,2.48,4.02,1.06,1.12,2.3,1.99,3.74,2.62,1.43.62,3.03.94,4.77.94s3.34-.32,4.77-.94c1.43-.63,2.68-1.5,3.74-2.62,1.06-1.13,1.88-2.47,2.48-4.02.59-1.56.89-3.28.89-5.15s-.3-3.59-.89-5.15c-.59-1.56-1.42-2.91-2.48-4.07-1.06-1.16-2.31-2.04-3.74-2.67-1.44-.62-3.03-.94-4.77-.94s-3.34.31-4.77.94Z"/>
        <path class="cls-2" d="M356.76,20.9v9.73l-22.27,26.11h23.2v12.16h-44.82v-9.73l23.67-26.1h-22.74v-12.16h42.95Z"/>
        <path class="cls-2" d="M414.4,52.71c-2.06,5.24-5.18,9.25-9.36,12.02-4.18,2.78-9.2,4.16-15.06,4.16-4.12,0-7.78-.67-10.99-2.01-3.21-1.34-5.93-3.16-8.14-5.47s-3.91-5.02-5.1-8.14c-1.19-3.12-1.78-6.46-1.78-10.01,0-3.74.59-7.22,1.78-10.43,1.19-3.21,2.88-5.97,5.1-8.28,2.21-2.31,4.93-4.12,8.14-5.43,3.21-1.31,6.81-1.96,10.81-1.96s7.39.61,10.57,1.82c3.18,1.22,5.89,2.95,8.14,5.19s3.99,4.94,5.24,8.09c1.25,3.15,1.87,6.63,1.87,10.43,0,1-.06,2.05-.19,3.13-.12,1.09-.28,1.95-.47,2.58h-37.8c.31,1.37.83,2.6,1.54,3.7.72,1.09,1.64,2.01,2.76,2.76,1.12.74,2.42,1.34,3.88,1.77,1.46.44,3.14.65,5.01.65.75,0,1.57-.06,2.48-.19s1.84-.34,2.81-.65,1.92-.77,2.85-1.36,1.78-1.39,2.53-2.38c0,0,0,0,0,0h13.38ZM403.55,39.05c-.25-1.25-.69-2.48-1.31-3.7-.63-1.22-1.48-2.29-2.58-3.23-1.09-.94-2.4-1.7-3.93-2.29-1.53-.59-3.29-.89-5.29-.89-2.37,0-4.38.37-6.03,1.12-1.65.75-3.01,1.65-4.07,2.71s-1.83,2.17-2.29,3.32-.7,2.14-.7,2.95h26.2Z"/>
        <path class="cls-1" d="M424.17,54.67c1.59-1.56,3.63-2.34,6.13-2.34s4.63.78,6.22,2.34,2.39,3.56,2.39,5.99-.79,4.41-2.39,5.94-3.67,2.29-6.22,2.29-4.54-.77-6.13-2.29c-1.59-1.53-2.39-3.51-2.39-5.94s.8-4.43,2.39-5.99Z"/>
      </g>
      <g>
        <path class="cls-2" d="M1.89,102.24c.05.46.2.89.47,1.28.27.39.61.73,1.03,1.02s.88.5,1.38.66c.51.15,1.03.23,1.57.23s1.04-.05,1.56-.16.98-.29,1.4-.54.75-.59,1-1,.38-.92.38-1.52-.15-1.11-.45-1.49-.7-.68-1.2-.91c-.5-.23-1.07-.41-1.71-.54-.64-.13-1.29-.27-1.95-.42-.66-.14-1.31-.31-1.95-.5-.64-.18-1.21-.44-1.71-.76s-.9-.75-1.21-1.27c-.31-.52-.46-1.18-.46-1.98s.17-1.5.51-2.1c.34-.6.79-1.1,1.36-1.5s1.22-.7,1.96-.9,1.51-.3,2.31-.3c.86,0,1.65.12,2.38.36.72.24,1.36.57,1.9.99.55.42.99.92,1.33,1.5.34.57.55,1.21.65,1.9h-1.87c-.08-.49-.25-.94-.51-1.34-.26-.4-.59-.74-.97-1.01-.39-.28-.82-.49-1.32-.63-.49-.15-1-.22-1.52-.22s-1.05.06-1.57.18c-.52.12-.99.31-1.4.57-.41.25-.74.57-1,.96-.26.39-.39.84-.39,1.36,0,.62.15,1.11.46,1.49.31.38.71.68,1.21.92.5.24,1.06.43,1.7.58s1.28.28,1.95.42c.67.13,1.32.28,1.96.46.64.18,1.2.43,1.7.75.49.32.89.74,1.2,1.23.31.5.46,1.14.46,1.93,0,.91-.17,1.68-.5,2.32-.33.64-.78,1.16-1.35,1.57-.57.41-1.22.71-1.96.91-.74.2-1.51.3-2.31.3-.89,0-1.7-.12-2.43-.34-.73-.23-1.37-.56-1.93-.97-.55-.41-1.01-.91-1.36-1.5-.35-.58-.58-1.24-.69-1.96h1.89Z"/>
        <path class="cls-2" d="M28.54,94.7c.44-1.07,1.04-1.99,1.81-2.75s1.68-1.35,2.75-1.78c1.06-.42,2.21-.63,3.44-.63s2.4.21,3.46.62c1.06.42,1.98,1.01,2.75,1.78.77.77,1.37,1.69,1.81,2.76.44,1.07.66,2.25.66,3.54s-.22,2.5-.66,3.58c-.44,1.08-1.05,2-1.82,2.76-.78.76-1.7,1.35-2.76,1.77-1.06.41-2.21.62-3.44.62s-2.37-.21-3.42-.62c-1.05-.42-1.96-1.01-2.75-1.77s-1.4-1.68-1.84-2.75c-.44-1.07-.66-2.26-.66-3.56s.22-2.5.66-3.57ZM39.07,104.89c.81-.31,1.54-.76,2.18-1.36.64-.6,1.15-1.34,1.55-2.23.39-.88.59-1.9.59-3.06,0-.81-.13-1.64-.4-2.48-.27-.84-.69-1.6-1.26-2.28-.57-.68-1.28-1.24-2.14-1.66s-1.87-.63-3.06-.63c-.83,0-1.65.15-2.46.44-.81.29-1.54.74-2.19,1.34s-1.18,1.34-1.58,2.23c-.4.88-.6,1.9-.6,3.06s.2,2.17.59,3.06c.39.88.91,1.63,1.56,2.23.65.6,1.38,1.05,2.19,1.35.82.3,1.65.45,2.49.45.88.02,1.72-.13,2.54-.44Z"/>
        <path class="cls-2" d="M61.14,90.03h1.8v14.7h8.47v1.76h-10.27v-16.46Z"/>
        <path class="cls-2" d="M88.35,90.03v9.81c0,.8.12,1.53.36,2.2s.57,1.25.99,1.73c.42.48.93.86,1.52,1.13.59.27,1.24.4,1.95.4s1.34-.13,1.93-.38c.59-.25,1.1-.62,1.52-1.1.42-.48.75-1.05.99-1.73.24-.68.36-1.43.36-2.26v-9.81h1.8v9.76c0,1.05-.16,2.01-.47,2.88-.32.88-.76,1.64-1.35,2.27-.58.64-1.28,1.14-2.1,1.49-.82.35-1.71.53-2.68.53s-1.88-.18-2.69-.53c-.81-.35-1.5-.85-2.09-1.49-.58-.64-1.04-1.39-1.36-2.27-.32-.88-.48-1.84-.48-2.88v-9.76h1.8Z"/>
        <path class="cls-2" d="M120.66,91.67h-4.94v-1.64h11.68v1.64h-4.92v14.82h-1.82v-14.82Z"/>
        <path class="cls-2" d="M143.35,90.03h1.8v16.46h-1.8v-16.46Z"/>
        <path class="cls-2" d="M161.75,94.7c.44-1.07,1.04-1.99,1.81-2.75s1.68-1.35,2.75-1.78c1.06-.42,2.21-.63,3.44-.63s2.4.21,3.46.62c1.06.42,1.98,1.01,2.75,1.78s1.37,1.69,1.81,2.76c.44,1.07.66,2.25.66,3.54s-.22,2.5-.66,3.58c-.44,1.08-1.05,2-1.82,2.76s-1.7,1.35-2.76,1.77c-1.06.41-2.21.62-3.44.62s-2.37-.21-3.42-.62c-1.05-.42-1.96-1.01-2.75-1.77-.78-.76-1.39-1.68-1.83-2.75-.44-1.07-.66-2.26-.66-3.56s.22-2.5.66-3.57ZM172.29,104.89c.81-.31,1.54-.76,2.18-1.36.64-.6,1.16-1.34,1.55-2.23s.59-1.9.59-3.06c0-.81-.14-1.64-.41-2.48-.27-.84-.69-1.6-1.26-2.28s-1.28-1.24-2.14-1.66-1.87-.63-3.06-.63c-.83,0-1.65.15-2.46.44-.81.29-1.54.74-2.19,1.34s-1.18,1.34-1.58,2.23-.6,1.9-.6,3.06.19,2.17.59,3.06c.39.88.91,1.63,1.56,2.23.65.6,1.37,1.05,2.19,1.35.81.3,1.65.45,2.49.45.88.02,1.72-.13,2.54-.44Z"/>
        <path class="cls-2" d="M194.35,89.87l12.18,12.83v-12.67h1.82v16.62l-12.14-12.65-.07,12.49h-1.8v-16.62Z"/>
        <path class="cls-2" d="M226.2,102.24c.05.46.21.89.47,1.28.27.39.61.73,1.03,1.02.41.28.88.5,1.38.66.51.15,1.03.23,1.57.23s1.04-.05,1.56-.16.98-.29,1.4-.54.75-.59,1-1,.38-.92.38-1.52-.15-1.11-.45-1.49c-.3-.38-.7-.68-1.2-.91-.5-.23-1.07-.41-1.71-.54-.64-.13-1.29-.27-1.95-.42-.66-.14-1.31-.31-1.95-.5-.64-.18-1.21-.44-1.71-.76-.5-.32-.9-.75-1.21-1.27-.31-.52-.46-1.18-.46-1.98s.17-1.5.51-2.1.79-1.1,1.36-1.5c.57-.4,1.22-.7,1.96-.9s1.51-.3,2.31-.3c.86,0,1.65.12,2.38.36s1.36.57,1.9.99.99.92,1.33,1.5c.34.57.55,1.21.65,1.9h-1.87c-.08-.49-.25-.94-.51-1.34s-.58-.74-.97-1.01c-.38-.28-.82-.49-1.32-.63s-1-.22-1.52-.22-1.05.06-1.57.18c-.52.12-.99.31-1.4.57s-.74.57-1,.96c-.26.39-.39.84-.39,1.36,0,.62.15,1.11.46,1.49s.71.68,1.21.92c.5.24,1.06.43,1.7.58s1.28.28,1.95.42c.67.13,1.32.28,1.96.46.64.18,1.2.43,1.7.75.49.32.89.74,1.2,1.23s.46,1.14.46,1.93c0,.91-.17,1.68-.5,2.32-.33.64-.78,1.16-1.35,1.57-.57.41-1.23.71-1.96.91s-1.51.3-2.31.3c-.89,0-1.7-.12-2.43-.34-.73-.23-1.37-.56-1.93-.97-.56-.41-1.01-.91-1.36-1.5-.35-.58-.58-1.24-.69-1.96h1.89Z"/>
      </g>
    </g>
  </g>
</svg>